<mxfile host="app.diagrams.net" agent="Mozilla/5.0 (Windows NT 10.0; Win64; x64) AppleWebKit/537.36 (KHTML, like Gecko) Chrome/137.0.0.0 Safari/537.36" version="27.1.0">
  <diagram name="Página-1" id="CJPpRa7Ae6J4bf47bd8g">
    <mxGraphModel dx="956" dy="929" grid="1" gridSize="10" guides="1" tooltips="1" connect="1" arrows="1" fold="1" page="1" pageScale="1" pageWidth="827" pageHeight="1169" math="0" shadow="0">
      <root>
        <mxCell id="0" />
        <mxCell id="1" parent="0" />
        <mxCell id="neHMU7VPoiU2L_bwzobO-54" value="Cliente" style="whiteSpace=wrap;html=1;align=center;fillColor=#0050ef;fontColor=#ffffff;strokeColor=#001DBC;" parent="1" vertex="1">
          <mxGeometry x="1170" y="1320" width="121" height="50" as="geometry" />
        </mxCell>
        <mxCell id="neHMU7VPoiU2L_bwzobO-55" style="edgeStyle=orthogonalEdgeStyle;rounded=0;orthogonalLoop=1;jettySize=auto;html=1;endArrow=none;startFill=0;" parent="1" source="neHMU7VPoiU2L_bwzobO-58" target="neHMU7VPoiU2L_bwzobO-66" edge="1">
          <mxGeometry relative="1" as="geometry" />
        </mxCell>
        <mxCell id="neHMU7VPoiU2L_bwzobO-56" style="edgeStyle=orthogonalEdgeStyle;rounded=0;orthogonalLoop=1;jettySize=auto;html=1;endArrow=none;startFill=0;" parent="1" source="neHMU7VPoiU2L_bwzobO-58" target="neHMU7VPoiU2L_bwzobO-68" edge="1">
          <mxGeometry relative="1" as="geometry" />
        </mxCell>
        <mxCell id="neHMU7VPoiU2L_bwzobO-57" style="edgeStyle=orthogonalEdgeStyle;rounded=0;orthogonalLoop=1;jettySize=auto;html=1;entryX=0;entryY=0.5;entryDx=0;entryDy=0;endArrow=none;startFill=0;" parent="1" source="neHMU7VPoiU2L_bwzobO-58" target="neHMU7VPoiU2L_bwzobO-72" edge="1">
          <mxGeometry relative="1" as="geometry" />
        </mxCell>
        <mxCell id="neHMU7VPoiU2L_bwzobO-58" value="Imovel" style="whiteSpace=wrap;html=1;align=center;fillColor=#0050ef;fontColor=#ffffff;strokeColor=#001DBC;" parent="1" vertex="1">
          <mxGeometry x="1620" y="1320" width="121" height="50" as="geometry" />
        </mxCell>
        <mxCell id="neHMU7VPoiU2L_bwzobO-59" value="Venda" style="whiteSpace=wrap;html=1;align=center;fillColor=#0050ef;fontColor=#ffffff;strokeColor=#001DBC;" parent="1" vertex="1">
          <mxGeometry x="1620" y="1475" width="121" height="50" as="geometry" />
        </mxCell>
        <mxCell id="neHMU7VPoiU2L_bwzobO-60" value="Locacao" style="whiteSpace=wrap;html=1;align=center;fillColor=#0050ef;fontColor=#ffffff;strokeColor=#001DBC;" parent="1" vertex="1">
          <mxGeometry x="1620" y="1145" width="121" height="50" as="geometry" />
        </mxCell>
        <mxCell id="neHMU7VPoiU2L_bwzobO-61" value="TipoImovel" style="whiteSpace=wrap;html=1;align=center;fillColor=#0050ef;fontColor=#ffffff;strokeColor=#001DBC;" parent="1" vertex="1">
          <mxGeometry x="1950" y="1320" width="121" height="50" as="geometry" />
        </mxCell>
        <mxCell id="neHMU7VPoiU2L_bwzobO-62" style="edgeStyle=orthogonalEdgeStyle;rounded=0;orthogonalLoop=1;jettySize=auto;html=1;entryX=0.5;entryY=1;entryDx=0;entryDy=0;endArrow=none;startFill=0;" parent="1" source="neHMU7VPoiU2L_bwzobO-64" target="neHMU7VPoiU2L_bwzobO-80" edge="1">
          <mxGeometry relative="1" as="geometry" />
        </mxCell>
        <mxCell id="neHMU7VPoiU2L_bwzobO-63" style="edgeStyle=orthogonalEdgeStyle;rounded=0;orthogonalLoop=1;jettySize=auto;html=1;entryX=0.5;entryY=0;entryDx=0;entryDy=0;endArrow=none;startFill=0;" parent="1" source="neHMU7VPoiU2L_bwzobO-64" target="neHMU7VPoiU2L_bwzobO-82" edge="1">
          <mxGeometry relative="1" as="geometry" />
        </mxCell>
        <mxCell id="neHMU7VPoiU2L_bwzobO-64" value="Corretor" style="whiteSpace=wrap;html=1;align=center;fillColor=#0050ef;fontColor=#ffffff;strokeColor=#001DBC;" parent="1" vertex="1">
          <mxGeometry x="2117" y="1320" width="121" height="50" as="geometry" />
        </mxCell>
        <mxCell id="neHMU7VPoiU2L_bwzobO-65" style="edgeStyle=orthogonalEdgeStyle;rounded=0;orthogonalLoop=1;jettySize=auto;html=1;endArrow=none;startFill=0;" parent="1" source="neHMU7VPoiU2L_bwzobO-66" target="neHMU7VPoiU2L_bwzobO-60" edge="1">
          <mxGeometry relative="1" as="geometry" />
        </mxCell>
        <mxCell id="neHMU7VPoiU2L_bwzobO-66" value="&lt;div&gt;É Alugado&lt;/div&gt;" style="shape=rhombus;perimeter=rhombusPerimeter;whiteSpace=wrap;html=1;align=center;fillColor=#a20025;fontColor=#ffffff;strokeColor=#6F0000;" parent="1" vertex="1">
          <mxGeometry x="1620" y="1225" width="120" height="60" as="geometry" />
        </mxCell>
        <mxCell id="neHMU7VPoiU2L_bwzobO-67" style="edgeStyle=orthogonalEdgeStyle;rounded=0;orthogonalLoop=1;jettySize=auto;html=1;endArrow=none;startFill=0;" parent="1" source="neHMU7VPoiU2L_bwzobO-68" target="neHMU7VPoiU2L_bwzobO-59" edge="1">
          <mxGeometry relative="1" as="geometry" />
        </mxCell>
        <mxCell id="neHMU7VPoiU2L_bwzobO-68" value="&lt;div&gt;É Vendido&lt;/div&gt;" style="shape=rhombus;perimeter=rhombusPerimeter;whiteSpace=wrap;html=1;align=center;fillColor=#a20025;fontColor=#ffffff;strokeColor=#6F0000;" parent="1" vertex="1">
          <mxGeometry x="1621" y="1395" width="120" height="60" as="geometry" />
        </mxCell>
        <mxCell id="neHMU7VPoiU2L_bwzobO-71" style="edgeStyle=orthogonalEdgeStyle;rounded=0;orthogonalLoop=1;jettySize=auto;html=1;entryX=0;entryY=0.5;entryDx=0;entryDy=0;endArrow=none;startFill=0;" parent="1" source="neHMU7VPoiU2L_bwzobO-72" target="neHMU7VPoiU2L_bwzobO-61" edge="1">
          <mxGeometry relative="1" as="geometry" />
        </mxCell>
        <mxCell id="neHMU7VPoiU2L_bwzobO-72" value="&lt;div&gt;Pertence a&lt;/div&gt;" style="shape=rhombus;perimeter=rhombusPerimeter;whiteSpace=wrap;html=1;align=center;fillColor=#a20025;fontColor=#ffffff;strokeColor=#6F0000;" parent="1" vertex="1">
          <mxGeometry x="1790" y="1315" width="120" height="60" as="geometry" />
        </mxCell>
        <mxCell id="neHMU7VPoiU2L_bwzobO-73" style="edgeStyle=orthogonalEdgeStyle;rounded=0;orthogonalLoop=1;jettySize=auto;html=1;endArrow=none;startFill=0;" parent="1" source="neHMU7VPoiU2L_bwzobO-75" target="neHMU7VPoiU2L_bwzobO-54" edge="1">
          <mxGeometry relative="1" as="geometry" />
        </mxCell>
        <mxCell id="neHMU7VPoiU2L_bwzobO-74" style="edgeStyle=orthogonalEdgeStyle;rounded=0;orthogonalLoop=1;jettySize=auto;html=1;entryX=0;entryY=0.5;entryDx=0;entryDy=0;endArrow=none;startFill=0;" parent="1" source="neHMU7VPoiU2L_bwzobO-75" target="neHMU7VPoiU2L_bwzobO-60" edge="1">
          <mxGeometry relative="1" as="geometry" />
        </mxCell>
        <mxCell id="neHMU7VPoiU2L_bwzobO-75" value="&lt;div&gt;É Locatário&lt;/div&gt;" style="shape=rhombus;perimeter=rhombusPerimeter;whiteSpace=wrap;html=1;align=center;fillColor=#a20025;fontColor=#ffffff;strokeColor=#6F0000;" parent="1" vertex="1">
          <mxGeometry x="1171" y="1140" width="120" height="60" as="geometry" />
        </mxCell>
        <mxCell id="neHMU7VPoiU2L_bwzobO-76" style="edgeStyle=orthogonalEdgeStyle;rounded=0;orthogonalLoop=1;jettySize=auto;html=1;endArrow=none;startFill=0;" parent="1" source="neHMU7VPoiU2L_bwzobO-78" target="neHMU7VPoiU2L_bwzobO-54" edge="1">
          <mxGeometry relative="1" as="geometry" />
        </mxCell>
        <mxCell id="neHMU7VPoiU2L_bwzobO-77" style="edgeStyle=orthogonalEdgeStyle;rounded=0;orthogonalLoop=1;jettySize=auto;html=1;entryX=0;entryY=0.5;entryDx=0;entryDy=0;endArrow=none;startFill=0;" parent="1" source="neHMU7VPoiU2L_bwzobO-78" target="neHMU7VPoiU2L_bwzobO-59" edge="1">
          <mxGeometry relative="1" as="geometry" />
        </mxCell>
        <mxCell id="neHMU7VPoiU2L_bwzobO-78" value="&lt;div&gt;É Comprador&lt;/div&gt;" style="shape=rhombus;perimeter=rhombusPerimeter;whiteSpace=wrap;html=1;align=center;fillColor=#a20025;fontColor=#ffffff;strokeColor=#6F0000;" parent="1" vertex="1">
          <mxGeometry x="1170.5" y="1470" width="120" height="60" as="geometry" />
        </mxCell>
        <mxCell id="neHMU7VPoiU2L_bwzobO-79" style="edgeStyle=orthogonalEdgeStyle;rounded=0;orthogonalLoop=1;jettySize=auto;html=1;entryX=1;entryY=0.5;entryDx=0;entryDy=0;endArrow=none;startFill=0;" parent="1" source="neHMU7VPoiU2L_bwzobO-80" target="neHMU7VPoiU2L_bwzobO-60" edge="1">
          <mxGeometry relative="1" as="geometry" />
        </mxCell>
        <mxCell id="neHMU7VPoiU2L_bwzobO-80" value="&lt;div&gt;Intermedia Locação&lt;/div&gt;" style="shape=rhombus;perimeter=rhombusPerimeter;whiteSpace=wrap;html=1;align=center;fillColor=#a20025;fontColor=#ffffff;strokeColor=#6F0000;" parent="1" vertex="1">
          <mxGeometry x="2117" y="1140" width="120" height="60" as="geometry" />
        </mxCell>
        <mxCell id="neHMU7VPoiU2L_bwzobO-81" style="edgeStyle=orthogonalEdgeStyle;rounded=0;orthogonalLoop=1;jettySize=auto;html=1;entryX=1;entryY=0.5;entryDx=0;entryDy=0;endArrow=none;startFill=0;" parent="1" source="neHMU7VPoiU2L_bwzobO-82" target="neHMU7VPoiU2L_bwzobO-59" edge="1">
          <mxGeometry relative="1" as="geometry" />
        </mxCell>
        <mxCell id="neHMU7VPoiU2L_bwzobO-82" value="&lt;div&gt;Intermedia Venda&lt;/div&gt;" style="shape=rhombus;perimeter=rhombusPerimeter;whiteSpace=wrap;html=1;align=center;fillColor=#a20025;fontColor=#ffffff;strokeColor=#6F0000;" parent="1" vertex="1">
          <mxGeometry x="2118" y="1470" width="120" height="60" as="geometry" />
        </mxCell>
        <mxCell id="neHMU7VPoiU2L_bwzobO-85" value="1" style="text;html=1;align=center;verticalAlign=middle;resizable=0;points=[];autosize=1;strokeColor=none;fillColor=none;" parent="1" vertex="1">
          <mxGeometry x="1674" y="1365" width="30" height="30" as="geometry" />
        </mxCell>
        <mxCell id="neHMU7VPoiU2L_bwzobO-86" value="1" style="text;html=1;align=center;verticalAlign=middle;resizable=0;points=[];autosize=1;strokeColor=none;fillColor=none;" parent="1" vertex="1">
          <mxGeometry x="1674" y="1450" width="30" height="30" as="geometry" />
        </mxCell>
        <mxCell id="neHMU7VPoiU2L_bwzobO-87" value="1" style="text;html=1;align=center;verticalAlign=middle;resizable=0;points=[];autosize=1;strokeColor=none;fillColor=none;" parent="1" vertex="1">
          <mxGeometry x="1674" y="1293" width="30" height="30" as="geometry" />
        </mxCell>
        <mxCell id="neHMU7VPoiU2L_bwzobO-88" value="1" style="text;html=1;align=center;verticalAlign=middle;resizable=0;points=[];autosize=1;strokeColor=none;fillColor=none;" parent="1" vertex="1">
          <mxGeometry x="1674" y="1192" width="30" height="30" as="geometry" />
        </mxCell>
        <mxCell id="neHMU7VPoiU2L_bwzobO-89" value="1" style="text;html=1;align=center;verticalAlign=middle;resizable=0;points=[];autosize=1;strokeColor=none;fillColor=none;" parent="1" vertex="1">
          <mxGeometry x="1230" y="1365" width="30" height="30" as="geometry" />
        </mxCell>
        <mxCell id="neHMU7VPoiU2L_bwzobO-90" value="N" style="text;html=1;align=center;verticalAlign=middle;resizable=0;points=[];autosize=1;strokeColor=none;fillColor=none;" parent="1" vertex="1">
          <mxGeometry x="1595" y="1475" width="30" height="30" as="geometry" />
        </mxCell>
        <mxCell id="neHMU7VPoiU2L_bwzobO-91" value="1" style="text;html=1;align=center;verticalAlign=middle;resizable=0;points=[];autosize=1;strokeColor=none;fillColor=none;" parent="1" vertex="1">
          <mxGeometry x="1226" y="1292" width="30" height="30" as="geometry" />
        </mxCell>
        <mxCell id="neHMU7VPoiU2L_bwzobO-92" value="N" style="text;html=1;align=center;verticalAlign=middle;resizable=0;points=[];autosize=1;strokeColor=none;fillColor=none;" parent="1" vertex="1">
          <mxGeometry x="1590" y="1165" width="30" height="30" as="geometry" />
        </mxCell>
        <mxCell id="neHMU7VPoiU2L_bwzobO-93" value="N" style="text;html=1;align=center;verticalAlign=middle;resizable=0;points=[];autosize=1;strokeColor=none;fillColor=none;" parent="1" vertex="1">
          <mxGeometry x="1740" y="1320" width="30" height="30" as="geometry" />
        </mxCell>
        <mxCell id="neHMU7VPoiU2L_bwzobO-94" value="1" style="text;html=1;align=center;verticalAlign=middle;resizable=0;points=[];autosize=1;strokeColor=none;fillColor=none;" parent="1" vertex="1">
          <mxGeometry x="1922" y="1320" width="30" height="30" as="geometry" />
        </mxCell>
        <mxCell id="neHMU7VPoiU2L_bwzobO-95" value="1" style="text;html=1;align=center;verticalAlign=middle;resizable=0;points=[];autosize=1;strokeColor=none;fillColor=none;" parent="1" vertex="1">
          <mxGeometry x="2150" y="1293" width="30" height="30" as="geometry" />
        </mxCell>
        <mxCell id="neHMU7VPoiU2L_bwzobO-96" value="1" style="text;html=1;align=center;verticalAlign=middle;resizable=0;points=[];autosize=1;strokeColor=none;fillColor=none;" parent="1" vertex="1">
          <mxGeometry x="2150" y="1370" width="30" height="30" as="geometry" />
        </mxCell>
        <mxCell id="neHMU7VPoiU2L_bwzobO-97" value="N" style="text;html=1;align=center;verticalAlign=middle;resizable=0;points=[];autosize=1;strokeColor=none;fillColor=none;" parent="1" vertex="1">
          <mxGeometry x="1734" y="1170" width="30" height="30" as="geometry" />
        </mxCell>
        <mxCell id="neHMU7VPoiU2L_bwzobO-98" value="N" style="text;html=1;align=center;verticalAlign=middle;resizable=0;points=[];autosize=1;strokeColor=none;fillColor=none;" parent="1" vertex="1">
          <mxGeometry x="1739" y="1472" width="30" height="30" as="geometry" />
        </mxCell>
        <mxCell id="neHMU7VPoiU2L_bwzobO-99" value="Proprietario" style="whiteSpace=wrap;html=1;align=center;fillColor=#0050ef;fontColor=#ffffff;strokeColor=#001DBC;" parent="1" vertex="1">
          <mxGeometry x="1320" y="1320" width="121" height="50" as="geometry" />
        </mxCell>
        <mxCell id="neHMU7VPoiU2L_bwzobO-101" style="edgeStyle=orthogonalEdgeStyle;rounded=0;orthogonalLoop=1;jettySize=auto;html=1;endArrow=none;startFill=0;" parent="1" source="neHMU7VPoiU2L_bwzobO-100" target="neHMU7VPoiU2L_bwzobO-58" edge="1">
          <mxGeometry relative="1" as="geometry" />
        </mxCell>
        <mxCell id="neHMU7VPoiU2L_bwzobO-102" style="edgeStyle=orthogonalEdgeStyle;rounded=0;orthogonalLoop=1;jettySize=auto;html=1;entryX=1;entryY=0.5;entryDx=0;entryDy=0;endArrow=none;startFill=0;" parent="1" source="neHMU7VPoiU2L_bwzobO-100" target="neHMU7VPoiU2L_bwzobO-99" edge="1">
          <mxGeometry relative="1" as="geometry" />
        </mxCell>
        <mxCell id="neHMU7VPoiU2L_bwzobO-100" value="&lt;div&gt;Possui&lt;/div&gt;" style="shape=rhombus;perimeter=rhombusPerimeter;whiteSpace=wrap;html=1;align=center;fillColor=#a20025;fontColor=#ffffff;strokeColor=#6F0000;" parent="1" vertex="1">
          <mxGeometry x="1475" y="1315" width="120" height="60" as="geometry" />
        </mxCell>
        <mxCell id="neHMU7VPoiU2L_bwzobO-103" value="1" style="text;html=1;align=center;verticalAlign=middle;resizable=0;points=[];autosize=1;strokeColor=none;fillColor=none;" parent="1" vertex="1">
          <mxGeometry x="1440" y="1320" width="30" height="30" as="geometry" />
        </mxCell>
        <mxCell id="neHMU7VPoiU2L_bwzobO-104" value="N" style="text;html=1;align=center;verticalAlign=middle;resizable=0;points=[];autosize=1;strokeColor=none;fillColor=none;" parent="1" vertex="1">
          <mxGeometry x="1595" y="1320" width="30" height="30" as="geometry" />
        </mxCell>
      </root>
    </mxGraphModel>
  </diagram>
</mxfile>
